# xmcd
# 
# Track frame offsets:
#     182
#     11942
#     35160
#     48862
#     59587
#     73572
#     87992
#     100012
#     113270
#     128887
#     143490
#     156632
#     173340
#     192045
#     209395
#     230207
#     248792
#     271617
#     306827
#     317350
# 
# Disc length: 4438
# 
# Revision: 1
# Processed by: cddbd v1.5.2PL0 Copyright (c) Steve Scherf et al.
# Submitted via: fre:ac v1.0.17
# 
DISCID=0e115414
DTITLE=Various Artist - Best of Blues
DYEAR=0
DGENRE=Blues
TTITLE0=John Lee Hooker Boogie Chillun
TTITLE1=Muddy Waters Mannish Boy
TTITLE2=Robert Johnson Sweet Home Chicago
TTITLE3=Lightin'Hopkins Coffes House Blues
TTITLE4=Little Walter Blues With A Feeling
TTITLE5=Clarence Gatemouth Brown Cross My Heart
TTITLE6=Jimmy Reed Bright Lights, Big City
TTITLE7=Howlin'Wolf Howlin For My Baby
TTITLE8=Albert King Born Under A Bad Sign
TTITLE9=Sonny Boy Williakson I See A Man Downstairs
TTITLE10=Elmore James Dust My Broom
TTITLE11=Bobby blue Bland Soul Of A Man
TTITLE12=John Mayall I Ain't Got You
TTITLE13=Sonny Terry Crow Jane
TTITLE14=Albert Collins Brick
TTITLE15=Robert Cray The Score
TTITLE16=B.B. King The Thrill Is Gone
TTITLE17=Luther Allison Goin'Down
TTITLE18=Buddy Guy First Time I Meet The Blues
TTITLE19=Lucky Perterson Repo Man
EXTD=
EXTT0=
EXTT1=
EXTT2=
EXTT3=
EXTT4=
EXTT5=
EXTT6=
EXTT7=
EXTT8=
EXTT9=
EXTT10=
EXTT11=
EXTT12=
EXTT13=
EXTT14=
EXTT15=
EXTT16=
EXTT17=
EXTT18=
EXTT19=
PLAYORDER=
